<!--?xml version="1.0" standalone="no"?-->
              <svg id="sw-js-blob-svg" viewBox="0 0 100 100" xmlns="http://www.w3.org/2000/svg" version="1.1">
                    <defs> 
                        <linearGradient id="sw-gradient" x1="0" x2="1" y1="1" y2="0">
                            <stop id="stop1" stop-color="rgba(255, 244.19, 239.074, 1)" offset="0%"></stop>
                            <stop id="stop2" stop-color="rgba(255, 233.24, 197.324, 1)" offset="100%"></stop>
                        </linearGradient>
                    </defs>
                <path fill="url(#sw-gradient)" d="M13.7,-20.1C19,-14.9,25.6,-12.7,29.5,-7.9C33.5,-3,34.9,4.4,32.1,9.7C29.4,15,22.5,18.2,16.4,24C10.4,29.8,5.2,38.3,0.5,37.5C-4.1,36.8,-8.2,26.8,-14.3,21C-20.4,15.2,-28.5,13.6,-34.2,8.3C-39.9,2.9,-43.1,-6,-40.2,-12.5C-37.3,-18.9,-28.3,-22.8,-20.6,-27.2C-12.9,-31.6,-6.4,-36.6,-1.1,-35C4.2,-33.5,8.3,-25.3,13.7,-20.1Z" width="100%" height="100%" transform="translate(50 50)" stroke-width="0" style="transition: 0.3s;" stroke="url(#sw-gradient)"></path>
              </svg>