<!--?xml version="1.0" standalone="no"?-->
              <svg id="sw-js-blob-svg" viewBox="0 0 100 100" xmlns="http://www.w3.org/2000/svg" version="1.1">
                    <defs> 
                        <linearGradient id="sw-gradient" x1="0" x2="1" y1="1" y2="0">
                            <stop id="stop1" stop-color="rgba(255, 244.19, 239.074, 1)" offset="0%"></stop>
                            <stop id="stop2" stop-color="rgba(255, 233.24, 197.324, 1)" offset="100%"></stop>
                        </linearGradient>
                    </defs>
                <path fill="url(#sw-gradient)" d="M11.5,-13.7C17.4,-14.1,26.3,-15.1,28.6,-12.4C31,-9.6,26.8,-3.2,22.6,0.9C18.4,5,14.2,6.8,12.2,12.3C10.2,17.8,10.4,27.1,6.8,32.2C3.3,37.3,-4.1,38.3,-10.4,36.1C-16.7,34,-21.9,28.7,-27.5,23.2C-33.2,17.8,-39.4,12.2,-39.3,6.3C-39.2,0.3,-32.8,-5.9,-27.3,-10.2C-21.8,-14.5,-17.2,-17,-12.7,-17.2C-8.3,-17.5,-4.2,-15.5,-0.7,-14.5C2.8,-13.4,5.6,-13.3,11.5,-13.7Z" width="100%" height="100%" transform="translate(50 50)" stroke-width="0" style="transition: 0.3s;" stroke="url(#sw-gradient)"></path>
              </svg>